<svg id="Layer_1" data-name="Layer 1" xmlns="http://www.w3.org/2000/svg" viewBox="0 0 21 11"><defs><style>.cls-1{fill:#f9f9f9;}</style></defs><title>Icon_Messer</title><path class="cls-1" d="M20.57,9.37,18.4,8.11a1.44,1.44,0,0,0,.24-.91,1.47,1.47,0,0,0-.72-1.14,1.38,1.38,0,0,0-1.31,0c-.33.17-.68.33-1,.49L4.24,0A.31.31,0,0,0,4,0a.32.32,0,0,0-.19.15,2.6,2.6,0,0,0,.56,3.2,2.86,2.86,0,0,0,.4.28L9.05,6.08a1.39,1.39,0,0,0,1.74-.3l2.64,1.46A22.1,22.1,0,0,1,1.78,7a1.36,1.36,0,0,0-1.27.28A1.43,1.43,0,0,0,0,8.49v.07a1.47,1.47,0,0,0,.49,1A1.39,1.39,0,0,0,1,9.82c7.68,2.31,13.12.62,15.73-.63l3,1.7a.91.91,0,0,0,.42.11.87.87,0,0,0,.75-.44A.89.89,0,0,0,20.57,9.37ZM1.19,9.24h0a.84.84,0,0,1-.58-.73V8.44a.82.82,0,0,1,.8-.88l.21,0c6.47,1.76,11.25.69,14-.45l-.11.1a.9.9,0,0,0,.1,1.25.85.85,0,0,0,.56.21.67.67,0,0,0,.24,0C13.93,9.85,8.66,11.48,1.19,9.24ZM14.83,6.8l-.57.2L11.13,5.27l.24-.45ZM16,7.64a.31.31,0,0,1,.19-.09.27.27,0,0,1,.19.06.28.28,0,0,1,0,.38A.27.27,0,0,1,16,8,.28.28,0,0,1,16,7.64Zm.87.75a.88.88,0,0,0,.2-.64.87.87,0,0,0-.93-.81h0l.75-.36a.78.78,0,0,1,.74,0l.13.09a.76.76,0,0,1,.28.56.8.8,0,0,1-.38.76,9.4,9.4,0,0,1-.92.51A.86.86,0,0,0,16.87,8.39Zm1.07.16L20.27,9.9a.26.26,0,0,1,.09.35.24.24,0,0,1-.34.1L17.4,8.86ZM10.45,5.23a.79.79,0,0,1-.49.39.8.8,0,0,1-.61-.07L5.08,3.11a1.93,1.93,0,0,1-.9-1.17,2,2,0,0,1,0-1.2l6.62,3.78Z"/></svg>